<mxfile host="Electron" modified="2021-12-04T18:24:43.015Z" agent="5.0 (X11; Linux x86_64) AppleWebKit/537.36 (KHTML, like Gecko) draw.io/15.8.7 Chrome/91.0.4472.164 Electron/13.6.2 Safari/537.36" etag="EMA7YAcqpDkpEDqEjIHQ" compressed="false" version="15.8.7" type="device">
  <diagram id="prtHgNgQTEPvFCAcTncT" name="Processos Alto Nível">
    <mxGraphModel dx="2250" dy="1810" grid="1" gridSize="10" guides="1" tooltips="1" connect="1" arrows="1" fold="1" page="1" pageScale="1" pageWidth="827" pageHeight="1169" math="0" shadow="0">
      <root>
        <mxCell id="0" />
        <mxCell id="1" parent="0" />
        <mxCell id="S9uaVLwE42Bdewrq16Cx-98" value="" style="rounded=0;whiteSpace=wrap;html=1;labelBackgroundColor=none;fontSize=20;strokeWidth=2;fillColor=#A9C4EB;gradientDirection=south;dashed=1;strokeColor=none;opacity=50;" parent="1" vertex="1">
          <mxGeometry x="60" y="840" width="1280" height="520" as="geometry" />
        </mxCell>
        <mxCell id="S9uaVLwE42Bdewrq16Cx-61" value="" style="rounded=0;whiteSpace=wrap;html=1;labelBackgroundColor=none;fontSize=20;strokeWidth=2;fillColor=#546d78;gradientDirection=south;dashed=1;strokeColor=none;opacity=50;" parent="1" vertex="1">
          <mxGeometry x="60" y="260" width="1640" height="550" as="geometry" />
        </mxCell>
        <mxCell id="NLFkMVxidJrpuLbfi5vq-1" value="&lt;b&gt;Desafio 2: &lt;font color=&quot;#5b7b65&quot;&gt;Processo Atual&lt;/font&gt;&lt;/b&gt;&lt;br&gt;Ferramenta de apoio à decisão para prospecção de castas antigas" style="text;html=1;strokeColor=none;fillColor=none;align=left;verticalAlign=middle;whiteSpace=wrap;rounded=0;fontSize=30;fontFamily=Roboto;fontSource=https%3A%2F%2Ffonts.googleapis.com%2Fcss%3Ffamily%3DRoboto;" parent="1" vertex="1">
          <mxGeometry x="40" y="120" width="1060" height="100" as="geometry" />
        </mxCell>
        <mxCell id="8Ae6zeDYgx-UutW48Nks-52" value="" style="rounded=0;whiteSpace=wrap;html=1;labelBackgroundColor=none;fontSize=20;strokeWidth=2;fillColor=#A9C4EB;gradientDirection=south;dashed=1;strokeColor=none;opacity=50;" parent="1" vertex="1">
          <mxGeometry x="1050" y="1360" width="290" height="80" as="geometry" />
        </mxCell>
        <mxCell id="8Ae6zeDYgx-UutW48Nks-53" value="&lt;span style=&quot;font-size: 23px&quot;&gt;2b - Agendar uma prospeção à parcela&lt;/span&gt;" style="rounded=0;whiteSpace=wrap;html=1;fontSize=20;fontColor=#000000;strokeColor=none;fillColor=none;opacity=50;fontStyle=1;strokeWidth=2;fontFamily=Helvetica;align=right;" parent="1" vertex="1">
          <mxGeometry x="1060" y="1380" width="280" height="60" as="geometry" />
        </mxCell>
        <mxCell id="8Ae6zeDYgx-UutW48Nks-54" value="&lt;font style=&quot;font-size: 50px;&quot;&gt;&lt;b style=&quot;font-size: 50px;&quot;&gt;SOS VITIS&lt;/b&gt;&lt;/font&gt;" style="text;html=1;strokeColor=none;fillColor=none;align=center;verticalAlign=middle;whiteSpace=wrap;rounded=0;fontFamily=Roboto;fontSize=50;fontColor=#000000;fontSource=https%3A%2F%2Ffonts.googleapis.com%2Fcss%3Ffamily%3DRoboto;" parent="1" vertex="1">
          <mxGeometry x="40" y="40" width="230" height="80" as="geometry" />
        </mxCell>
        <mxCell id="S9uaVLwE42Bdewrq16Cx-85" style="edgeStyle=orthogonalEdgeStyle;rounded=0;jumpStyle=arc;orthogonalLoop=1;jettySize=auto;html=1;dashed=1;fontFamily=Roboto;fontSource=https%3A%2F%2Ffonts.googleapis.com%2Fcss%3Ffamily%3DRoboto;fontSize=15;fontColor=#000000;startArrow=oval;startFill=0;endArrow=classic;endFill=1;strokeWidth=2;" parent="1" source="S9uaVLwE42Bdewrq16Cx-46" target="S9uaVLwE42Bdewrq16Cx-79" edge="1">
          <mxGeometry relative="1" as="geometry">
            <Array as="points">
              <mxPoint x="1090" y="1000" />
              <mxPoint x="1090" y="1000" />
            </Array>
          </mxGeometry>
        </mxCell>
        <mxCell id="S9uaVLwE42Bdewrq16Cx-92" style="edgeStyle=orthogonalEdgeStyle;rounded=0;jumpStyle=arc;orthogonalLoop=1;jettySize=auto;html=1;dashed=1;fontFamily=Roboto;fontSource=https%3A%2F%2Ffonts.googleapis.com%2Fcss%3Ffamily%3DRoboto;fontSize=15;fontColor=#000000;startArrow=oval;startFill=0;endArrow=classic;endFill=1;strokeWidth=2;entryX=0.5;entryY=1;entryDx=0;entryDy=0;entryPerimeter=0;" parent="1" source="S9uaVLwE42Bdewrq16Cx-46" target="S9uaVLwE42Bdewrq16Cx-89" edge="1">
          <mxGeometry relative="1" as="geometry">
            <mxPoint x="630" y="1370" as="targetPoint" />
            <Array as="points">
              <mxPoint x="775" y="1240" />
              <mxPoint x="775" y="1240" />
            </Array>
          </mxGeometry>
        </mxCell>
        <mxCell id="S9uaVLwE42Bdewrq16Cx-46" value="&lt;b&gt;Viticultor&lt;/b&gt;" style="swimlane;html=1;startSize=20;fontStyle=0;collapsible=0;horizontal=0;swimlaneLine=1;swimlaneFillColor=none;strokeWidth=2;rounded=0;shadow=0;glass=0;fontSize=14;fillColor=none;" parent="1" vertex="1">
          <mxGeometry x="40" y="1280" width="1300" height="80" as="geometry" />
        </mxCell>
        <mxCell id="S9uaVLwE42Bdewrq16Cx-63" value="PN3.&amp;nbsp;Agendamento de prospeção" style="swimlane;html=1;childLayout=stackLayout;resizeParent=1;resizeParentMax=0;horizontal=1;startSize=20;horizontalStack=0;fontFamily=Roboto;fontSource=https%3A%2F%2Ffonts.googleapis.com%2Fcss%3Ffamily%3DRoboto;fontSize=15;fontColor=#000000;strokeColor=default;strokeWidth=2;fillColor=default;gradientColor=none;" parent="1" vertex="1">
          <mxGeometry x="40" y="840" width="1300" height="420" as="geometry" />
        </mxCell>
        <mxCell id="S9uaVLwE42Bdewrq16Cx-64" value="PORVID" style="swimlane;html=1;startSize=20;horizontal=0;fontFamily=Roboto;fontSource=https%3A%2F%2Ffonts.googleapis.com%2Fcss%3Ffamily%3DRoboto;fontSize=15;fontColor=#000000;strokeColor=default;strokeWidth=2;fillColor=default;gradientColor=none;" parent="S9uaVLwE42Bdewrq16Cx-63" vertex="1">
          <mxGeometry y="20" width="1300" height="250" as="geometry" />
        </mxCell>
        <mxCell id="S9uaVLwE42Bdewrq16Cx-67" value="" style="points=[[0.145,0.145,0],[0.5,0,0],[0.855,0.145,0],[1,0.5,0],[0.855,0.855,0],[0.5,1,0],[0.145,0.855,0],[0,0.5,0]];shape=mxgraph.bpmn.event;html=1;verticalLabelPosition=bottom;labelBackgroundColor=#ffffff;verticalAlign=top;align=center;perimeter=ellipsePerimeter;outlineConnect=0;aspect=fixed;outline=standard;symbol=general;" parent="S9uaVLwE42Bdewrq16Cx-64" vertex="1">
          <mxGeometry x="50" y="155" width="50" height="50" as="geometry" />
        </mxCell>
        <mxCell id="S9uaVLwE42Bdewrq16Cx-80" style="edgeStyle=orthogonalEdgeStyle;rounded=0;jumpStyle=arc;orthogonalLoop=1;jettySize=auto;html=1;fontFamily=Roboto;fontSource=https%3A%2F%2Ffonts.googleapis.com%2Fcss%3Ffamily%3DRoboto;fontSize=15;fontColor=#000000;endArrow=classic;endFill=1;strokeWidth=2;" parent="S9uaVLwE42Bdewrq16Cx-64" source="S9uaVLwE42Bdewrq16Cx-75" target="S9uaVLwE42Bdewrq16Cx-79" edge="1">
          <mxGeometry relative="1" as="geometry" />
        </mxCell>
        <mxCell id="S9uaVLwE42Bdewrq16Cx-75" value="Agendar visita às vinhas" style="points=[[0.25,0,0],[0.5,0,0],[0.75,0,0],[1,0.25,0],[1,0.5,0],[1,0.75,0],[0.75,1,0],[0.5,1,0],[0.25,1,0],[0,0.75,0],[0,0.5,0],[0,0.25,0]];shape=mxgraph.bpmn.task;whiteSpace=wrap;rectStyle=rounded;size=10;taskMarker=send;rounded=0;shadow=0;glass=0;sketch=0;fontSize=15;align=center;verticalAlign=middle;html=1;" parent="S9uaVLwE42Bdewrq16Cx-64" vertex="1">
          <mxGeometry x="850" y="30" width="130" height="80" as="geometry" />
        </mxCell>
        <mxCell id="S9uaVLwE42Bdewrq16Cx-76" value="Notificar&amp;nbsp;&lt;span style=&quot;font-size: 14px&quot;&gt;DRAP&lt;/span&gt;" style="points=[[0.25,0,0],[0.5,0,0],[0.75,0,0],[1,0.25,0],[1,0.5,0],[1,0.75,0],[0.75,1,0],[0.5,1,0],[0.25,1,0],[0,0.75,0],[0,0.5,0],[0,0.25,0]];shape=mxgraph.bpmn.task;whiteSpace=wrap;rectStyle=rounded;size=10;taskMarker=send;rounded=0;shadow=0;glass=0;sketch=0;fontSize=15;align=center;verticalAlign=middle;html=1;" parent="S9uaVLwE42Bdewrq16Cx-64" vertex="1">
          <mxGeometry x="410" y="140" width="130" height="80" as="geometry" />
        </mxCell>
        <mxCell id="S9uaVLwE42Bdewrq16Cx-82" style="edgeStyle=orthogonalEdgeStyle;rounded=0;jumpStyle=arc;orthogonalLoop=1;jettySize=auto;html=1;fontFamily=Roboto;fontSource=https%3A%2F%2Ffonts.googleapis.com%2Fcss%3Ffamily%3DRoboto;fontSize=15;fontColor=#000000;endArrow=classic;endFill=1;strokeWidth=2;" parent="S9uaVLwE42Bdewrq16Cx-64" source="S9uaVLwE42Bdewrq16Cx-79" target="S9uaVLwE42Bdewrq16Cx-81" edge="1">
          <mxGeometry relative="1" as="geometry" />
        </mxCell>
        <mxCell id="S9uaVLwE42Bdewrq16Cx-79" value="Agendamento" style="points=[[0.145,0.145,0],[0.5,0,0],[0.855,0.145,0],[1,0.5,0],[0.855,0.855,0],[0.5,1,0],[0.145,0.855,0],[0,0.5,0]];shape=mxgraph.bpmn.event;html=1;verticalLabelPosition=top;labelBackgroundColor=none;verticalAlign=bottom;align=center;perimeter=ellipsePerimeter;outlineConnect=0;aspect=fixed;outline=catching;symbol=message;rounded=0;shadow=0;glass=0;sketch=0;fontSize=15;labelPosition=center;" parent="S9uaVLwE42Bdewrq16Cx-64" vertex="1">
          <mxGeometry x="1030" y="45" width="50" height="50" as="geometry" />
        </mxCell>
        <mxCell id="S9uaVLwE42Bdewrq16Cx-81" value="Agendamento concluido" style="points=[[0.145,0.145,0],[0.5,0,0],[0.855,0.145,0],[1,0.5,0],[0.855,0.855,0],[0.5,1,0],[0.145,0.855,0],[0,0.5,0]];shape=mxgraph.bpmn.event;html=1;verticalLabelPosition=top;labelBackgroundColor=#ffffff;verticalAlign=bottom;align=center;perimeter=ellipsePerimeter;outlineConnect=0;aspect=fixed;outline=end;symbol=terminate2;rounded=0;shadow=0;glass=0;sketch=0;fontSize=15;whiteSpace=wrap;labelPosition=center;" parent="S9uaVLwE42Bdewrq16Cx-64" vertex="1">
          <mxGeometry x="1160" y="45" width="50" height="50" as="geometry" />
        </mxCell>
        <mxCell id="S9uaVLwE42Bdewrq16Cx-71" style="edgeStyle=orthogonalEdgeStyle;rounded=0;jumpStyle=arc;orthogonalLoop=1;jettySize=auto;html=1;fontFamily=Roboto;fontSource=https%3A%2F%2Ffonts.googleapis.com%2Fcss%3Ffamily%3DRoboto;fontSize=15;fontColor=#000000;endArrow=classic;endFill=1;strokeWidth=2;entryX=0;entryY=0.5;entryDx=0;entryDy=0;entryPerimeter=0;" parent="S9uaVLwE42Bdewrq16Cx-64" source="S9uaVLwE42Bdewrq16Cx-67" target="S9uaVLwE42Bdewrq16Cx-161" edge="1">
          <mxGeometry relative="1" as="geometry">
            <mxPoint x="140" y="165" as="targetPoint" />
          </mxGeometry>
        </mxCell>
        <mxCell id="S9uaVLwE42Bdewrq16Cx-162" style="edgeStyle=orthogonalEdgeStyle;rounded=0;jumpStyle=arc;orthogonalLoop=1;jettySize=auto;html=1;fontFamily=Roboto;fontSource=https%3A%2F%2Ffonts.googleapis.com%2Fcss%3Ffamily%3DRoboto;fontSize=15;fontColor=#000000;startArrow=none;startFill=0;endArrow=classic;endFill=1;strokeWidth=2;" parent="S9uaVLwE42Bdewrq16Cx-64" source="S9uaVLwE42Bdewrq16Cx-161" target="S9uaVLwE42Bdewrq16Cx-75" edge="1">
          <mxGeometry relative="1" as="geometry">
            <Array as="points">
              <mxPoint x="165" y="70" />
            </Array>
          </mxGeometry>
        </mxCell>
        <mxCell id="S9uaVLwE42Bdewrq16Cx-164" value="Existe contacto com o viticultor" style="edgeLabel;html=1;align=center;verticalAlign=middle;resizable=0;points=[];fontSize=15;fontFamily=Roboto;fontColor=#000000;" parent="S9uaVLwE42Bdewrq16Cx-162" vertex="1" connectable="0">
          <mxGeometry x="-0.0627" y="-2" relative="1" as="geometry">
            <mxPoint x="-38" y="-2" as="offset" />
          </mxGeometry>
        </mxCell>
        <mxCell id="S9uaVLwE42Bdewrq16Cx-163" value="Não existe&lt;br&gt;contacto com o viticultor" style="edgeStyle=orthogonalEdgeStyle;rounded=0;jumpStyle=arc;orthogonalLoop=1;jettySize=auto;html=1;fontFamily=Roboto;fontSource=https%3A%2F%2Ffonts.googleapis.com%2Fcss%3Ffamily%3DRoboto;fontSize=15;fontColor=#000000;startArrow=none;startFill=0;endArrow=classic;endFill=1;strokeWidth=2;" parent="S9uaVLwE42Bdewrq16Cx-64" source="S9uaVLwE42Bdewrq16Cx-161" target="S9uaVLwE42Bdewrq16Cx-76" edge="1">
          <mxGeometry x="-0.0909" y="-10" relative="1" as="geometry">
            <mxPoint as="offset" />
          </mxGeometry>
        </mxCell>
        <mxCell id="S9uaVLwE42Bdewrq16Cx-161" value="" style="points=[[0.25,0.25,0],[0.5,0,0],[0.75,0.25,0],[1,0.5,0],[0.75,0.75,0],[0.5,1,0],[0.25,0.75,0],[0,0.5,0]];shape=mxgraph.bpmn.gateway2;html=1;verticalLabelPosition=bottom;labelBackgroundColor=#ffffff;verticalAlign=top;align=center;perimeter=rhombusPerimeter;outlineConnect=0;outline=none;symbol=none;gwType=exclusive;fontFamily=Roboto;fontSource=https%3A%2F%2Ffonts.googleapis.com%2Fcss%3Ffamily%3DRoboto;fontSize=15;fontColor=#000000;strokeColor=default;strokeWidth=2;fillColor=default;gradientColor=none;" parent="S9uaVLwE42Bdewrq16Cx-64" vertex="1">
          <mxGeometry x="140" y="155" width="50" height="50" as="geometry" />
        </mxCell>
        <mxCell id="w84bxeX1_4bTFo4KzlCm-2" value="Confirmar agendamento" style="points=[[0.25,0,0],[0.5,0,0],[0.75,0,0],[1,0.25,0],[1,0.5,0],[1,0.75,0],[0.75,1,0],[0.5,1,0],[0.25,1,0],[0,0.75,0],[0,0.5,0],[0,0.25,0]];shape=mxgraph.bpmn.task;whiteSpace=wrap;rectStyle=rounded;size=10;taskMarker=manual;fontFamily=Roboto;fontSource=https%3A%2F%2Ffonts.googleapis.com%2Fcss%3Ffamily%3DRoboto;fontSize=15;fontColor=#000000;strokeColor=default;strokeWidth=2;fillColor=default;gradientColor=none;html=1;" vertex="1" parent="S9uaVLwE42Bdewrq16Cx-64">
          <mxGeometry x="675" y="140" width="120" height="80" as="geometry" />
        </mxCell>
        <mxCell id="S9uaVLwE42Bdewrq16Cx-96" style="edgeStyle=orthogonalEdgeStyle;rounded=0;jumpStyle=arc;orthogonalLoop=1;jettySize=auto;html=1;fontFamily=Roboto;fontSource=https%3A%2F%2Ffonts.googleapis.com%2Fcss%3Ffamily%3DRoboto;fontSize=15;fontColor=#000000;startArrow=none;startFill=0;endArrow=classic;endFill=1;strokeWidth=2;" parent="S9uaVLwE42Bdewrq16Cx-64" source="S9uaVLwE42Bdewrq16Cx-76" target="w84bxeX1_4bTFo4KzlCm-2" edge="1">
          <mxGeometry relative="1" as="geometry">
            <mxPoint x="670" y="179.99999999999977" as="targetPoint" />
          </mxGeometry>
        </mxCell>
        <mxCell id="S9uaVLwE42Bdewrq16Cx-97" style="edgeStyle=orthogonalEdgeStyle;rounded=0;jumpStyle=arc;orthogonalLoop=1;jettySize=auto;html=1;fontFamily=Roboto;fontSource=https%3A%2F%2Ffonts.googleapis.com%2Fcss%3Ffamily%3DRoboto;fontSize=15;fontColor=#000000;startArrow=none;startFill=0;endArrow=classic;endFill=1;strokeWidth=2;" parent="S9uaVLwE42Bdewrq16Cx-64" source="w84bxeX1_4bTFo4KzlCm-2" target="S9uaVLwE42Bdewrq16Cx-81" edge="1">
          <mxGeometry relative="1" as="geometry">
            <mxPoint x="800" y="180.00000000000023" as="sourcePoint" />
          </mxGeometry>
        </mxCell>
        <mxCell id="S9uaVLwE42Bdewrq16Cx-93" style="edgeStyle=orthogonalEdgeStyle;rounded=0;jumpStyle=arc;orthogonalLoop=1;jettySize=auto;html=1;dashed=1;fontFamily=Roboto;fontSource=https%3A%2F%2Ffonts.googleapis.com%2Fcss%3Ffamily%3DRoboto;fontSize=15;fontColor=#000000;startArrow=oval;startFill=0;endArrow=classic;endFill=1;strokeWidth=2;entryX=0.5;entryY=0;entryDx=0;entryDy=0;entryPerimeter=0;" parent="S9uaVLwE42Bdewrq16Cx-63" source="S9uaVLwE42Bdewrq16Cx-76" target="S9uaVLwE42Bdewrq16Cx-86" edge="1">
          <mxGeometry relative="1" as="geometry">
            <mxPoint x="160" y="380" as="sourcePoint" />
            <mxPoint x="350" y="340" as="targetPoint" />
            <Array as="points">
              <mxPoint x="475" y="280" />
              <mxPoint x="475" y="280" />
            </Array>
          </mxGeometry>
        </mxCell>
        <mxCell id="S9uaVLwE42Bdewrq16Cx-65" value="DRAP" style="swimlane;html=1;startSize=20;horizontal=0;fontFamily=Roboto;fontSource=https%3A%2F%2Ffonts.googleapis.com%2Fcss%3Ffamily%3DRoboto;fontSize=15;fontColor=#000000;strokeColor=default;strokeWidth=2;fillColor=default;gradientColor=none;" parent="S9uaVLwE42Bdewrq16Cx-63" vertex="1">
          <mxGeometry y="270" width="1300" height="150" as="geometry" />
        </mxCell>
        <mxCell id="S9uaVLwE42Bdewrq16Cx-86" value="Contactar viticultores" style="points=[[0.25,0.25,0],[0.5,0,0],[0.75,0.25,0],[1,0.5,0],[0.75,0.75,0],[0.5,1,0],[0.25,0.75,0],[0,0.5,0]];shape=mxgraph.bpmn.gateway2;html=1;verticalLabelPosition=bottom;labelBackgroundColor=#ffffff;verticalAlign=top;align=center;perimeter=rhombusPerimeter;outlineConnect=0;outline=standard;symbol=conditional;rounded=0;shadow=0;glass=0;sketch=0;fontSize=15;whiteSpace=wrap;labelPosition=center;" parent="S9uaVLwE42Bdewrq16Cx-65" vertex="1">
          <mxGeometry x="450" y="35" width="50" height="50" as="geometry" />
        </mxCell>
        <mxCell id="S9uaVLwE42Bdewrq16Cx-87" value="Notificar viticultores" style="points=[[0.25,0,0],[0.5,0,0],[0.75,0,0],[1,0.25,0],[1,0.5,0],[1,0.75,0],[0.75,1,0],[0.5,1,0],[0.25,1,0],[0,0.75,0],[0,0.5,0],[0,0.25,0]];shape=mxgraph.bpmn.task;whiteSpace=wrap;rectStyle=rounded;size=10;taskMarker=send;rounded=0;shadow=0;glass=0;sketch=0;fontSize=15;align=center;verticalAlign=middle;html=1;" parent="S9uaVLwE42Bdewrq16Cx-65" vertex="1">
          <mxGeometry x="550" y="20" width="120" height="80" as="geometry" />
        </mxCell>
        <mxCell id="S9uaVLwE42Bdewrq16Cx-88" style="edgeStyle=orthogonalEdgeStyle;rounded=0;jumpStyle=none;orthogonalLoop=1;jettySize=auto;html=1;fontSize=15;startArrow=none;startFill=0;endArrow=classic;endFill=1;strokeWidth=2;" parent="S9uaVLwE42Bdewrq16Cx-65" source="S9uaVLwE42Bdewrq16Cx-86" target="S9uaVLwE42Bdewrq16Cx-87" edge="1">
          <mxGeometry relative="1" as="geometry">
            <mxPoint x="744" y="-1390" as="targetPoint" />
          </mxGeometry>
        </mxCell>
        <mxCell id="S9uaVLwE42Bdewrq16Cx-89" value="Agendamento" style="points=[[0.145,0.145,0],[0.5,0,0],[0.855,0.145,0],[1,0.5,0],[0.855,0.855,0],[0.5,1,0],[0.145,0.855,0],[0,0.5,0]];shape=mxgraph.bpmn.event;html=1;verticalLabelPosition=middle;labelBackgroundColor=#ffffff;verticalAlign=middle;align=left;perimeter=ellipsePerimeter;outlineConnect=0;aspect=fixed;outline=catching;symbol=message;rounded=0;shadow=0;glass=0;sketch=0;fontSize=15;labelPosition=right;" parent="S9uaVLwE42Bdewrq16Cx-65" vertex="1">
          <mxGeometry x="710" y="35" width="50" height="50" as="geometry" />
        </mxCell>
        <mxCell id="S9uaVLwE42Bdewrq16Cx-90" style="edgeStyle=orthogonalEdgeStyle;rounded=0;jumpStyle=arc;jumpSize=10;orthogonalLoop=1;jettySize=auto;html=1;fontSize=15;startArrow=none;startFill=0;endArrow=classic;endFill=1;strokeWidth=2;" parent="S9uaVLwE42Bdewrq16Cx-65" source="S9uaVLwE42Bdewrq16Cx-87" target="S9uaVLwE42Bdewrq16Cx-89" edge="1">
          <mxGeometry relative="1" as="geometry" />
        </mxCell>
        <mxCell id="S9uaVLwE42Bdewrq16Cx-95" style="edgeStyle=orthogonalEdgeStyle;rounded=0;jumpStyle=arc;orthogonalLoop=1;jettySize=auto;html=1;fontFamily=Roboto;fontSource=https%3A%2F%2Ffonts.googleapis.com%2Fcss%3Ffamily%3DRoboto;fontSize=15;fontColor=#000000;startArrow=oval;startFill=0;endArrow=classic;endFill=1;strokeWidth=2;dashed=1;" parent="S9uaVLwE42Bdewrq16Cx-63" source="S9uaVLwE42Bdewrq16Cx-89" target="w84bxeX1_4bTFo4KzlCm-2" edge="1">
          <mxGeometry relative="1" as="geometry">
            <mxPoint x="735" y="239.99999999999977" as="targetPoint" />
            <Array as="points" />
          </mxGeometry>
        </mxCell>
        <mxCell id="S9uaVLwE42Bdewrq16Cx-84" style="edgeStyle=orthogonalEdgeStyle;rounded=0;jumpStyle=arc;orthogonalLoop=1;jettySize=auto;html=1;fontFamily=Roboto;fontSource=https%3A%2F%2Ffonts.googleapis.com%2Fcss%3Ffamily%3DRoboto;fontSize=15;fontColor=#000000;endArrow=classic;endFill=1;strokeWidth=2;dashed=1;startArrow=oval;startFill=0;" parent="1" source="S9uaVLwE42Bdewrq16Cx-75" edge="1">
          <mxGeometry relative="1" as="geometry">
            <mxPoint x="960" y="1280" as="targetPoint" />
            <Array as="points">
              <mxPoint x="960" y="1210" />
              <mxPoint x="960" y="1210" />
            </Array>
          </mxGeometry>
        </mxCell>
        <mxCell id="S9uaVLwE42Bdewrq16Cx-91" style="edgeStyle=orthogonalEdgeStyle;rounded=0;jumpStyle=arc;orthogonalLoop=1;jettySize=auto;html=1;dashed=1;fontFamily=Roboto;fontSource=https%3A%2F%2Ffonts.googleapis.com%2Fcss%3Ffamily%3DRoboto;fontSize=15;fontColor=#000000;startArrow=oval;startFill=0;endArrow=classic;endFill=1;strokeWidth=2;" parent="1" source="S9uaVLwE42Bdewrq16Cx-87" edge="1">
          <mxGeometry relative="1" as="geometry">
            <mxPoint x="650" y="1280" as="targetPoint" />
            <Array as="points">
              <mxPoint x="650" y="1250" />
              <mxPoint x="650" y="1250" />
            </Array>
          </mxGeometry>
        </mxCell>
        <mxCell id="S9uaVLwE42Bdewrq16Cx-104" value="&lt;span style=&quot;font-size: 15px ; background-color: rgb(255 , 255 , 255)&quot;&gt;PN2.&amp;nbsp;&lt;/span&gt;&lt;span style=&quot;font-size: 15px&quot;&gt;Decisão sobre parcelas a prospetar&lt;/span&gt;" style="swimlane;html=1;childLayout=stackLayout;resizeParent=1;resizeParentMax=0;horizontal=1;startSize=20;horizontalStack=0;strokeWidth=2;" parent="1" vertex="1">
          <mxGeometry x="40" y="240" width="1660" height="570" as="geometry">
            <mxRectangle x="40" y="1730" width="250" height="20" as="alternateBounds" />
          </mxGeometry>
        </mxCell>
        <mxCell id="S9uaVLwE42Bdewrq16Cx-105" value="&lt;span style=&quot;font-size: 15px&quot;&gt;PORVID&lt;/span&gt;" style="swimlane;html=1;startSize=20;horizontal=0;" parent="S9uaVLwE42Bdewrq16Cx-104" vertex="1">
          <mxGeometry y="20" width="1660" height="380" as="geometry" />
        </mxCell>
        <mxCell id="S9uaVLwE42Bdewrq16Cx-106" style="edgeStyle=orthogonalEdgeStyle;rounded=0;orthogonalLoop=1;jettySize=auto;html=1;fontSize=15;endArrow=classic;endFill=1;strokeWidth=2;" parent="S9uaVLwE42Bdewrq16Cx-105" source="S9uaVLwE42Bdewrq16Cx-107" target="S9uaVLwE42Bdewrq16Cx-113" edge="1">
          <mxGeometry relative="1" as="geometry" />
        </mxCell>
        <mxCell id="S9uaVLwE42Bdewrq16Cx-107" value="" style="points=[[0.145,0.145,0],[0.5,0,0],[0.855,0.145,0],[1,0.5,0],[0.855,0.855,0],[0.5,1,0],[0.145,0.855,0],[0,0.5,0]];shape=mxgraph.bpmn.event;html=1;verticalLabelPosition=bottom;labelBackgroundColor=#ffffff;verticalAlign=top;align=center;perimeter=ellipsePerimeter;outlineConnect=0;aspect=fixed;outline=standard;symbol=general;" parent="S9uaVLwE42Bdewrq16Cx-105" vertex="1">
          <mxGeometry x="59" y="139" width="50" height="50" as="geometry" />
        </mxCell>
        <mxCell id="S9uaVLwE42Bdewrq16Cx-112" style="edgeStyle=orthogonalEdgeStyle;rounded=0;orthogonalLoop=1;jettySize=auto;html=1;strokeWidth=2;" parent="S9uaVLwE42Bdewrq16Cx-105" source="S9uaVLwE42Bdewrq16Cx-113" target="S9uaVLwE42Bdewrq16Cx-120" edge="1">
          <mxGeometry relative="1" as="geometry" />
        </mxCell>
        <mxCell id="S9uaVLwE42Bdewrq16Cx-113" value="Listagem de parcelas" style="points=[[0.25,0,0],[0.5,0,0],[0.75,0,0],[1,0.25,0],[1,0.5,0],[1,0.75,0],[0.75,1,0],[0.5,1,0],[0.25,1,0],[0,0.75,0],[0,0.5,0],[0,0.25,0]];shape=mxgraph.bpmn.task;whiteSpace=wrap;rectStyle=rounded;size=10;taskMarker=abstract;isLoopMultiParallel=1;fontSize=15;" parent="S9uaVLwE42Bdewrq16Cx-105" vertex="1">
          <mxGeometry x="160" y="124" width="120" height="80" as="geometry" />
        </mxCell>
        <mxCell id="S9uaVLwE42Bdewrq16Cx-114" style="edgeStyle=orthogonalEdgeStyle;rounded=0;orthogonalLoop=1;jettySize=auto;html=1;strokeWidth=2;" parent="S9uaVLwE42Bdewrq16Cx-105" source="S9uaVLwE42Bdewrq16Cx-115" target="S9uaVLwE42Bdewrq16Cx-122" edge="1">
          <mxGeometry relative="1" as="geometry">
            <mxPoint x="810" y="590" as="targetPoint" />
          </mxGeometry>
        </mxCell>
        <mxCell id="S9uaVLwE42Bdewrq16Cx-115" value="Notificação&lt;br&gt;DRAP" style="points=[[0.145,0.145,0],[0.5,0,0],[0.855,0.145,0],[1,0.5,0],[0.855,0.855,0],[0.5,1,0],[0.145,0.855,0],[0,0.5,0]];shape=mxgraph.bpmn.event;html=1;verticalLabelPosition=top;labelBackgroundColor=#ffffff;verticalAlign=bottom;align=center;perimeter=ellipsePerimeter;outlineConnect=0;aspect=fixed;outline=standard;symbol=message;fontSize=15;strokeWidth=2;labelPosition=center;" parent="S9uaVLwE42Bdewrq16Cx-105" vertex="1">
          <mxGeometry x="720" y="290" width="40" height="40" as="geometry" />
        </mxCell>
        <mxCell id="S9uaVLwE42Bdewrq16Cx-117" style="edgeStyle=orthogonalEdgeStyle;rounded=0;orthogonalLoop=1;jettySize=auto;html=1;strokeWidth=2;" parent="S9uaVLwE42Bdewrq16Cx-105" source="S9uaVLwE42Bdewrq16Cx-118" target="S9uaVLwE42Bdewrq16Cx-115" edge="1">
          <mxGeometry relative="1" as="geometry">
            <Array as="points">
              <mxPoint x="545" y="310" />
            </Array>
          </mxGeometry>
        </mxCell>
        <mxCell id="S9uaVLwE42Bdewrq16Cx-118" value="" style="points=[[0.25,0.25,0],[0.5,0,0],[0.75,0.25,0],[1,0.5,0],[0.75,0.75,0],[0.5,1,0],[0.25,0.75,0],[0,0.5,0]];shape=mxgraph.bpmn.gateway2;html=1;verticalLabelPosition=bottom;labelBackgroundColor=#ffffff;verticalAlign=top;align=center;perimeter=rhombusPerimeter;outlineConnect=0;outline=none;symbol=none;gwType=parallel;labelBorderColor=none;" parent="S9uaVLwE42Bdewrq16Cx-105" vertex="1">
          <mxGeometry x="520" y="139.5" width="50" height="50" as="geometry" />
        </mxCell>
        <mxCell id="S9uaVLwE42Bdewrq16Cx-119" style="edgeStyle=orthogonalEdgeStyle;rounded=0;orthogonalLoop=1;jettySize=auto;html=1;strokeWidth=2;" parent="S9uaVLwE42Bdewrq16Cx-105" source="S9uaVLwE42Bdewrq16Cx-120" target="S9uaVLwE42Bdewrq16Cx-118" edge="1">
          <mxGeometry relative="1" as="geometry" />
        </mxCell>
        <mxCell id="S9uaVLwE42Bdewrq16Cx-120" value="Notificar DRAP" style="points=[[0.25,0,0],[0.5,0,0],[0.75,0,0],[1,0.25,0],[1,0.5,0],[1,0.75,0],[0.75,1,0],[0.5,1,0],[0.25,1,0],[0,0.75,0],[0,0.5,0],[0,0.25,0]];shape=mxgraph.bpmn.task;whiteSpace=wrap;rectStyle=rounded;size=10;taskMarker=send;rounded=0;shadow=0;glass=0;sketch=0;fontSize=15;align=center;verticalAlign=middle;html=1;" parent="S9uaVLwE42Bdewrq16Cx-105" vertex="1">
          <mxGeometry x="330" y="124.5" width="130" height="80" as="geometry" />
        </mxCell>
        <mxCell id="S9uaVLwE42Bdewrq16Cx-121" style="edgeStyle=orthogonalEdgeStyle;rounded=0;orthogonalLoop=1;jettySize=auto;html=1;strokeWidth=2;" parent="S9uaVLwE42Bdewrq16Cx-105" source="S9uaVLwE42Bdewrq16Cx-122" target="S9uaVLwE42Bdewrq16Cx-123" edge="1">
          <mxGeometry relative="1" as="geometry" />
        </mxCell>
        <mxCell id="S9uaVLwE42Bdewrq16Cx-122" value="" style="points=[[0.25,0.25,0],[0.5,0,0],[0.75,0.25,0],[1,0.5,0],[0.75,0.75,0],[0.5,1,0],[0.25,0.75,0],[0,0.5,0]];shape=mxgraph.bpmn.gateway2;html=1;verticalLabelPosition=bottom;labelBackgroundColor=#ffffff;verticalAlign=top;align=center;perimeter=rhombusPerimeter;outlineConnect=0;outline=none;symbol=none;gwType=parallel;labelBorderColor=none;" parent="S9uaVLwE42Bdewrq16Cx-105" vertex="1">
          <mxGeometry x="1210" y="201" width="50" height="50" as="geometry" />
        </mxCell>
        <mxCell id="S9uaVLwE42Bdewrq16Cx-123" value="" style="points=[[0.25,0.25,0],[0.5,0,0],[0.75,0.25,0],[1,0.5,0],[0.75,0.75,0],[0.5,1,0],[0.25,0.75,0],[0,0.5,0]];shape=mxgraph.bpmn.gateway2;html=1;verticalLabelPosition=bottom;labelBackgroundColor=#ffffff;verticalAlign=top;align=center;perimeter=rhombusPerimeter;outlineConnect=0;outline=none;symbol=none;gwType=exclusive;rounded=0;shadow=0;glass=0;sketch=0;fontSize=15;" parent="S9uaVLwE42Bdewrq16Cx-105" vertex="1">
          <mxGeometry x="1320" y="201" width="50" height="50" as="geometry" />
        </mxCell>
        <mxCell id="S9uaVLwE42Bdewrq16Cx-124" style="edgeStyle=orthogonalEdgeStyle;rounded=0;orthogonalLoop=1;jettySize=auto;html=1;fontSize=15;endArrow=classic;endFill=1;strokeWidth=2;" parent="S9uaVLwE42Bdewrq16Cx-105" source="S9uaVLwE42Bdewrq16Cx-123" target="S9uaVLwE42Bdewrq16Cx-137" edge="1">
          <mxGeometry relative="1" as="geometry">
            <mxPoint x="1718" y="330" as="targetPoint" />
            <Array as="points">
              <mxPoint x="1345" y="276" />
            </Array>
          </mxGeometry>
        </mxCell>
        <mxCell id="S9uaVLwE42Bdewrq16Cx-125" value="parcela sem interesse&lt;br&gt;de prospeção" style="edgeLabel;html=1;align=center;verticalAlign=middle;resizable=0;points=[];fontSize=15;" parent="S9uaVLwE42Bdewrq16Cx-124" vertex="1" connectable="0">
          <mxGeometry x="0.1463" y="6" relative="1" as="geometry">
            <mxPoint x="10" y="6" as="offset" />
          </mxGeometry>
        </mxCell>
        <mxCell id="S9uaVLwE42Bdewrq16Cx-126" value="parcela com interesse&lt;br&gt;de prospeção" style="edgeStyle=orthogonalEdgeStyle;rounded=0;orthogonalLoop=1;jettySize=auto;html=1;fontSize=15;endArrow=classic;endFill=1;strokeWidth=2;" parent="S9uaVLwE42Bdewrq16Cx-105" source="S9uaVLwE42Bdewrq16Cx-123" target="S9uaVLwE42Bdewrq16Cx-136" edge="1">
          <mxGeometry x="0.1018" relative="1" as="geometry">
            <Array as="points">
              <mxPoint x="1345" y="181" />
            </Array>
            <mxPoint x="1609.9999999999995" y="181" as="targetPoint" />
            <mxPoint x="1" as="offset" />
          </mxGeometry>
        </mxCell>
        <mxCell id="S9uaVLwE42Bdewrq16Cx-127" value="" style="points=[[0.25,0.25,0],[0.5,0,0],[0.75,0.25,0],[1,0.5,0],[0.75,0.75,0],[0.5,1,0],[0.25,0.75,0],[0,0.5,0]];shape=mxgraph.bpmn.gateway2;html=1;verticalLabelPosition=bottom;labelBackgroundColor=#ffffff;verticalAlign=top;align=center;perimeter=rhombusPerimeter;outlineConnect=0;outline=none;symbol=none;gwType=exclusive;rounded=0;shadow=0;glass=0;sketch=0;fontSize=15;" parent="S9uaVLwE42Bdewrq16Cx-105" vertex="1">
          <mxGeometry x="790" y="139.5" width="50" height="50" as="geometry" />
        </mxCell>
        <mxCell id="S9uaVLwE42Bdewrq16Cx-128" style="edgeStyle=orthogonalEdgeStyle;rounded=0;orthogonalLoop=1;jettySize=auto;html=1;strokeWidth=2;" parent="S9uaVLwE42Bdewrq16Cx-105" source="S9uaVLwE42Bdewrq16Cx-154" target="S9uaVLwE42Bdewrq16Cx-122" edge="1">
          <mxGeometry relative="1" as="geometry">
            <Array as="points">
              <mxPoint x="1235" y="164" />
            </Array>
            <mxPoint x="1191" y="164.5" as="sourcePoint" />
          </mxGeometry>
        </mxCell>
        <mxCell id="S9uaVLwE42Bdewrq16Cx-130" style="edgeStyle=orthogonalEdgeStyle;rounded=0;orthogonalLoop=1;jettySize=auto;html=1;endArrow=classic;endFill=1;strokeWidth=2;" parent="S9uaVLwE42Bdewrq16Cx-105" source="S9uaVLwE42Bdewrq16Cx-127" target="S9uaVLwE42Bdewrq16Cx-122" edge="1">
          <mxGeometry relative="1" as="geometry">
            <mxPoint x="1220" y="310.5" as="targetPoint" />
            <Array as="points">
              <mxPoint x="815" y="226" />
            </Array>
          </mxGeometry>
        </mxCell>
        <mxCell id="S9uaVLwE42Bdewrq16Cx-131" value="&lt;span style=&quot;font-size: 15px&quot;&gt;Ano de plantação &amp;lt;= 1980&lt;/span&gt;" style="edgeLabel;html=1;align=center;verticalAlign=middle;resizable=0;points=[];" parent="S9uaVLwE42Bdewrq16Cx-130" vertex="1" connectable="0">
          <mxGeometry x="0.0552" y="-2" relative="1" as="geometry">
            <mxPoint x="-52" y="-2" as="offset" />
          </mxGeometry>
        </mxCell>
        <mxCell id="S9uaVLwE42Bdewrq16Cx-134" style="edgeStyle=orthogonalEdgeStyle;rounded=0;orthogonalLoop=1;jettySize=auto;html=1;endArrow=classic;endFill=1;strokeWidth=2;" parent="S9uaVLwE42Bdewrq16Cx-105" source="S9uaVLwE42Bdewrq16Cx-127" target="S9uaVLwE42Bdewrq16Cx-154" edge="1">
          <mxGeometry relative="1" as="geometry">
            <mxPoint x="1071" y="130" as="targetPoint" />
            <Array as="points" />
          </mxGeometry>
        </mxCell>
        <mxCell id="S9uaVLwE42Bdewrq16Cx-135" value="&lt;font style=&quot;font-size: 15px&quot;&gt;Ano de plantação &amp;gt; 1980&lt;/font&gt;" style="edgeLabel;html=1;align=center;verticalAlign=middle;resizable=0;points=[];" parent="S9uaVLwE42Bdewrq16Cx-134" vertex="1" connectable="0">
          <mxGeometry x="-0.4295" y="2" relative="1" as="geometry">
            <mxPoint x="29" y="3" as="offset" />
          </mxGeometry>
        </mxCell>
        <mxCell id="S9uaVLwE42Bdewrq16Cx-136" value="Parcelas com interesse" style="points=[[0.145,0.145,0],[0.5,0,0],[0.855,0.145,0],[1,0.5,0],[0.855,0.855,0],[0.5,1,0],[0.145,0.855,0],[0,0.5,0]];shape=mxgraph.bpmn.event;html=1;verticalLabelPosition=top;labelBackgroundColor=#ffffff;verticalAlign=bottom;align=center;perimeter=ellipsePerimeter;outlineConnect=0;aspect=fixed;outline=end;symbol=terminate2;rounded=0;shadow=0;glass=0;sketch=0;fontSize=15;labelBorderColor=none;whiteSpace=wrap;labelPosition=center;" parent="S9uaVLwE42Bdewrq16Cx-105" vertex="1">
          <mxGeometry x="1570" y="154.5" width="50" height="50" as="geometry" />
        </mxCell>
        <mxCell id="S9uaVLwE42Bdewrq16Cx-137" value="Parcelas sem interesse" style="points=[[0.145,0.145,0],[0.5,0,0],[0.855,0.145,0],[1,0.5,0],[0.855,0.855,0],[0.5,1,0],[0.145,0.855,0],[0,0.5,0]];shape=mxgraph.bpmn.event;html=1;verticalLabelPosition=bottom;labelBackgroundColor=#ffffff;verticalAlign=top;align=center;perimeter=ellipsePerimeter;outlineConnect=0;aspect=fixed;outline=boundInt;symbol=cancel;fontSize=15;strokeWidth=2;whiteSpace=wrap;" parent="S9uaVLwE42Bdewrq16Cx-105" vertex="1">
          <mxGeometry x="1570" y="251" width="50" height="50" as="geometry" />
        </mxCell>
        <mxCell id="S9uaVLwE42Bdewrq16Cx-154" value="Validação de castas" style="points=[[0.25,0,0],[0.5,0,0],[0.75,0,0],[1,0.25,0],[1,0.5,0],[1,0.75,0],[0.75,1,0],[0.5,1,0],[0.25,1,0],[0,0.75,0],[0,0.5,0],[0,0.25,0]];shape=mxgraph.bpmn.task;whiteSpace=wrap;rectStyle=rounded;size=10;taskMarker=user;fontFamily=Roboto;fontSource=https%3A%2F%2Ffonts.googleapis.com%2Fcss%3Ffamily%3DRoboto;fontSize=15;fontColor=#000000;strokeColor=default;strokeWidth=2;fillColor=default;gradientColor=none;" parent="S9uaVLwE42Bdewrq16Cx-105" vertex="1">
          <mxGeometry x="1070" y="124.5" width="120" height="80" as="geometry" />
        </mxCell>
        <mxCell id="S9uaVLwE42Bdewrq16Cx-156" style="edgeStyle=orthogonalEdgeStyle;rounded=0;jumpStyle=arc;orthogonalLoop=1;jettySize=auto;html=1;fontFamily=Roboto;fontSource=https%3A%2F%2Ffonts.googleapis.com%2Fcss%3Ffamily%3DRoboto;fontSize=15;fontColor=#000000;startArrow=none;startFill=0;endArrow=classic;endFill=1;strokeWidth=2;dashed=1;" parent="S9uaVLwE42Bdewrq16Cx-105" source="S9uaVLwE42Bdewrq16Cx-155" target="S9uaVLwE42Bdewrq16Cx-113" edge="1">
          <mxGeometry relative="1" as="geometry" />
        </mxCell>
        <mxCell id="S9uaVLwE42Bdewrq16Cx-155" value="Registos PORVID" style="shape=mxgraph.bpmn.data;labelPosition=center;verticalLabelPosition=top;align=center;verticalAlign=bottom;size=15;fontFamily=Roboto;fontSource=https%3A%2F%2Ffonts.googleapis.com%2Fcss%3Ffamily%3DRoboto;fontSize=15;fontColor=#000000;strokeColor=default;strokeWidth=2;fillColor=default;gradientColor=none;html=1;" parent="S9uaVLwE42Bdewrq16Cx-105" vertex="1">
          <mxGeometry x="200" y="30" width="40" height="50" as="geometry" />
        </mxCell>
        <mxCell id="S9uaVLwE42Bdewrq16Cx-145" value="&lt;span style=&quot;font-size: 14px ; background-color: rgb(248 , 249 , 250)&quot;&gt;DRAP&lt;/span&gt;" style="swimlane;html=1;startSize=20;horizontal=0;" parent="S9uaVLwE42Bdewrq16Cx-104" vertex="1">
          <mxGeometry y="400" width="1660" height="170" as="geometry" />
        </mxCell>
        <mxCell id="S9uaVLwE42Bdewrq16Cx-146" value="Notificar PORVID" style="points=[[0.25,0,0],[0.5,0,0],[0.75,0,0],[1,0.25,0],[1,0.5,0],[1,0.75,0],[0.75,1,0],[0.5,1,0],[0.25,1,0],[0,0.75,0],[0,0.5,0],[0,0.25,0]];shape=mxgraph.bpmn.task;whiteSpace=wrap;rectStyle=rounded;size=10;taskMarker=send;rounded=0;shadow=0;glass=0;sketch=0;fontSize=15;align=center;verticalAlign=middle;html=1;" parent="S9uaVLwE42Bdewrq16Cx-145" vertex="1">
          <mxGeometry x="654" y="30" width="130" height="80" as="geometry" />
        </mxCell>
        <mxCell id="S9uaVLwE42Bdewrq16Cx-147" style="edgeStyle=orthogonalEdgeStyle;rounded=0;orthogonalLoop=1;jettySize=auto;html=1;fontSize=15;startArrow=none;startFill=0;endArrow=classic;endFill=1;strokeWidth=2;" parent="S9uaVLwE42Bdewrq16Cx-145" source="S9uaVLwE42Bdewrq16Cx-148" target="S9uaVLwE42Bdewrq16Cx-146" edge="1">
          <mxGeometry relative="1" as="geometry">
            <mxPoint x="238.99999999999955" y="-3380" as="sourcePoint" />
          </mxGeometry>
        </mxCell>
        <mxCell id="S9uaVLwE42Bdewrq16Cx-148" value="Validação percela" style="points=[[0.25,0,0],[0.5,0,0],[0.75,0,0],[1,0.25,0],[1,0.5,0],[1,0.75,0],[0.75,1,0],[0.5,1,0],[0.25,1,0],[0,0.75,0],[0,0.5,0],[0,0.25,0]];shape=mxgraph.bpmn.task;whiteSpace=wrap;rectStyle=rounded;size=10;taskMarker=abstract;isLoopStandard=1;fillColor=default;fontSize=15;" parent="S9uaVLwE42Bdewrq16Cx-145" vertex="1">
          <mxGeometry x="464" y="30" width="150" height="80" as="geometry" />
        </mxCell>
        <mxCell id="S9uaVLwE42Bdewrq16Cx-149" style="edgeStyle=orthogonalEdgeStyle;rounded=0;jumpStyle=arc;orthogonalLoop=1;jettySize=auto;html=1;labelBackgroundColor=default;fontSize=15;startArrow=none;startFill=0;endArrow=classic;endFill=1;strokeWidth=2;" parent="S9uaVLwE42Bdewrq16Cx-145" source="S9uaVLwE42Bdewrq16Cx-150" target="S9uaVLwE42Bdewrq16Cx-148" edge="1">
          <mxGeometry relative="1" as="geometry" />
        </mxCell>
        <mxCell id="S9uaVLwE42Bdewrq16Cx-150" value="&lt;font face=&quot;arial, sans-serif&quot;&gt;Informação sobre parcela&lt;br&gt;&lt;/font&gt;" style="points=[[0.145,0.145,0],[0.5,0,0],[0.855,0.145,0],[1,0.5,0],[0.855,0.855,0],[0.5,1,0],[0.145,0.855,0],[0,0.5,0]];shape=mxgraph.bpmn.event;html=1;verticalLabelPosition=bottom;labelBackgroundColor=#ffffff;verticalAlign=top;align=center;perimeter=ellipsePerimeter;outlineConnect=0;aspect=fixed;outline=standard;symbol=message;rounded=0;shadow=0;glass=0;sketch=0;fontSize=15;whiteSpace=wrap;" parent="S9uaVLwE42Bdewrq16Cx-145" vertex="1">
          <mxGeometry x="374" y="50" width="40" height="40" as="geometry" />
        </mxCell>
        <mxCell id="S9uaVLwE42Bdewrq16Cx-151" style="edgeStyle=orthogonalEdgeStyle;rounded=0;jumpStyle=arc;orthogonalLoop=1;jettySize=auto;html=1;dashed=1;labelBackgroundColor=default;fontSize=15;startArrow=oval;startFill=0;endArrow=classic;endFill=1;strokeWidth=2;" parent="S9uaVLwE42Bdewrq16Cx-104" source="S9uaVLwE42Bdewrq16Cx-146" target="S9uaVLwE42Bdewrq16Cx-115" edge="1">
          <mxGeometry relative="1" as="geometry">
            <Array as="points">
              <mxPoint x="740" y="420" />
              <mxPoint x="740" y="420" />
            </Array>
            <mxPoint x="550" y="500" as="targetPoint" />
          </mxGeometry>
        </mxCell>
        <mxCell id="S9uaVLwE42Bdewrq16Cx-152" style="edgeStyle=orthogonalEdgeStyle;rounded=0;jumpStyle=arc;orthogonalLoop=1;jettySize=auto;html=1;labelBackgroundColor=default;fontSize=15;startArrow=oval;startFill=0;endArrow=classic;endFill=1;strokeWidth=2;dashed=1;" parent="S9uaVLwE42Bdewrq16Cx-104" source="S9uaVLwE42Bdewrq16Cx-120" target="S9uaVLwE42Bdewrq16Cx-150" edge="1">
          <mxGeometry relative="1" as="geometry">
            <Array as="points">
              <mxPoint x="394" y="390" />
              <mxPoint x="394" y="390" />
            </Array>
            <mxPoint x="220" y="370" as="sourcePoint" />
          </mxGeometry>
        </mxCell>
        <mxCell id="8Ae6zeDYgx-UutW48Nks-50" value="" style="rounded=0;whiteSpace=wrap;html=1;labelBackgroundColor=none;fontSize=20;strokeWidth=2;fillColor=#546d78;gradientDirection=south;dashed=1;strokeColor=none;opacity=50;" parent="1" vertex="1">
          <mxGeometry x="1400" y="130" width="300" height="130" as="geometry" />
        </mxCell>
        <mxCell id="8Ae6zeDYgx-UutW48Nks-24" value="&lt;span style=&quot;font-size: 23px&quot;&gt;2a - Analisar a informação descritiva sobre a parcela alvo de intervenção VITIS&lt;/span&gt;" style="rounded=0;whiteSpace=wrap;html=1;fontSize=20;fontColor=#000000;strokeColor=none;fillColor=none;opacity=50;fontStyle=1;strokeWidth=2;fontFamily=Helvetica;align=right;" parent="1" vertex="1">
          <mxGeometry x="1430" y="140" width="270" height="90" as="geometry" />
        </mxCell>
        <mxCell id="w84bxeX1_4bTFo4KzlCm-1" value="&lt;span&gt;Validação ano plantação&lt;/span&gt;" style="points=[[0.25,0,0],[0.5,0,0],[0.75,0,0],[1,0.25,0],[1,0.5,0],[1,0.75,0],[0.75,1,0],[0.5,1,0],[0.25,1,0],[0,0.75,0],[0,0.5,0],[0,0.25,0]];shape=mxgraph.bpmn.task;whiteSpace=wrap;rectStyle=rounded;size=10;taskMarker=manual;fontFamily=Roboto;fontSource=https%3A%2F%2Ffonts.googleapis.com%2Fcss%3Ffamily%3DRoboto;fontSize=15;fontColor=#000000;strokeColor=default;strokeWidth=2;fillColor=default;gradientColor=none;html=1;" vertex="1" parent="1">
          <mxGeometry x="660" y="384.5" width="120" height="80" as="geometry" />
        </mxCell>
        <mxCell id="S9uaVLwE42Bdewrq16Cx-116" style="edgeStyle=orthogonalEdgeStyle;rounded=0;orthogonalLoop=1;jettySize=auto;html=1;strokeWidth=2;" parent="1" source="S9uaVLwE42Bdewrq16Cx-118" target="w84bxeX1_4bTFo4KzlCm-1" edge="1">
          <mxGeometry relative="1" as="geometry">
            <mxPoint x="660" y="424.5" as="targetPoint" />
            <Array as="points" />
          </mxGeometry>
        </mxCell>
        <mxCell id="S9uaVLwE42Bdewrq16Cx-132" style="edgeStyle=orthogonalEdgeStyle;rounded=0;orthogonalLoop=1;jettySize=auto;html=1;strokeWidth=2;" parent="1" source="w84bxeX1_4bTFo4KzlCm-1" target="S9uaVLwE42Bdewrq16Cx-127" edge="1">
          <mxGeometry relative="1" as="geometry">
            <mxPoint x="780" y="424.5" as="sourcePoint" />
          </mxGeometry>
        </mxCell>
      </root>
    </mxGraphModel>
  </diagram>
</mxfile>
